<svg xmlns="http://www.w3.org/2000/svg" version="1.1" xmlns:xlink="http://www.w3.org/1999/xlink" width="512" height="512" x="0" y="0" viewBox="0 0 512 512" style="enable-background:new 0 0 512 512" xml:space="preserve" class=""><g><path d="M466.786 512c-11.524 0-23.049-4.386-31.822-13.159L234.258 298.135l63.647-63.647 200.704 200.704c17.548 17.547 17.548 46.099 0 63.647C489.835 507.614 478.31 512 466.786 512z" style="" fill="#f28686" data-original="#86d6f2" opacity="1"></path><path d="m209.802 301.966-151.27-151.27c-17.064-17.064-27.224-40.218-29.383-66.962-1.895-23.462 2.324-49.13 12.201-74.227L45.09 0h18.325l224.176 224.176-77.789 77.79z" style="" fill="#fcacac" data-original="#ace3fc" class="" opacity="1"></path><path d="m490.181 85.223-81.327 81.326-21.216-21.215 81.327-81.327-21.215-21.215-81.326 81.326-21.215-21.215 81.327-81.326L405.32.361 299.242 106.438a74.877 74.877 0 0 0-21.821 48.52c-.645 10.79-5.451 21.183-13.533 29.266L13.39 434.721c-17.547 17.547-17.547 46.099 0 63.646 8.773 8.774 20.298 13.16 31.822 13.16 11.525 0 23.049-4.386 31.823-13.16L327.532 247.87c8.083-8.083 18.477-12.889 29.266-13.534a74.866 74.866 0 0 0 48.52-21.82l106.077-106.077-21.214-21.216z" style="" fill="#ffcccc" data-original="#ccefff" class="" opacity="1"></path><path d="m408.856 166.549-21.216-21.215 81.326-81.327L458.358 53.4 13.39 498.367c8.773 8.774 20.298 13.16 31.822 13.16 11.525 0 23.049-4.386 31.823-13.16L327.532 247.87c8.083-8.083 18.477-12.889 29.266-13.534a74.866 74.866 0 0 0 48.52-21.82l106.077-106.077-21.215-21.214-81.324 81.324z" style="" fill="#fcacac" data-original="#ace3fc" class="" opacity="1"></path></g></svg>